<svg height="40" viewBox="0 0 157 40" width="157" xmlns="http://www.w3.org/2000/svg"><g fill="none" fill-rule="evenodd"><path d="m8.9735982 0h139.0528038c3.120315 0 4.251817.32488964 5.392558.93496446 1.140741.61007483 2.036001 1.50533484 2.646076 2.64607558.610074 1.14074074.934964 2.27224257.934964 5.39255816v22.0529336c0 3.1203156-.32489 4.2518174-.934964 5.3925582-.610075 1.1407407-1.505335 2.0360007-2.646076 2.6460755-1.140741.6100749-2.272243.9349645-5.392558.9349645h-139.0528038c-3.12031559 0-4.25181742-.3248896-5.39255816-.9349645-1.14074074-.6100748-2.03600075-1.5053348-2.64607558-2.6460755-.61007482-1.1407408-.93496446-2.2722426-.93496446-5.3925582v-22.0529336c0-3.12031559.32488964-4.25181742.93496446-5.39255816.61007483-1.14074074 1.50533484-2.03600075 2.64607558-2.64607558 1.14074074-.61007482 2.27224257-.93496446 5.39255816-.93496446z" fill="#fa1955"/><g fill="#fff"><path d="m19.5 10c.8284271 0 1.5.6715729 1.5 1.5l-.0006797 13.829 5.2176891-5.2180873c.5857864-.5857864 1.5355339-.5857864 2.1213203 0s.5857864 1.5355339 0 2.1213203l-7.7781746 7.7781746c-.5857864.5857865-1.5355339.5857865-2.1213203 0l-7.7781746-7.7781746c-.5857865-.5857864-.5857865-1.5355339 0-2.1213203.5857864-.5857864 1.5355339-.5857864 2.1213203 0l5.2173398 5.2180873.0006797-13.829c0-.8284271.6715729-1.5 1.5-1.5z"/><g fill-rule="nonzero"><g transform="translate(35.392944 18.239258)"><path d="m0 12.2607422h2.0098877v-4.60083009h4.73242187v-1.64086914h-4.73242187v-3.33569336h5.17529296v-1.69604492h-7.18518066z"/><path d="m8.89213371 12.2607422h1.94311519v-4.96142579c0-.40820313.0892741-.76100668.2678223-1.05841065s.4291382-.52750651.75177-.69030762c.3226319-.1628011.7000936-.24420166 1.1323853-.24420166.1691894 0 .333374.00939942.4925537.02819825.1591797.01879882.3181559.04618326.4769287.08215332v-1.74340821c-.0957031-.02522786-.2143758-.04640706-.3560181-.06353759-.1416422-.01713054-.2857869-.0256958-.432434-.0256958-.5611166 0-1.0310873.12650553-1.4099121.3795166-.3788249.25301106-.6415609.60913086-.7882081 1.06835937h-.1348877v-1.30688476h-1.94311519z"/><path d="m18.6680889 12.4313965c.5788574 0 1.0873006-.0740967 1.5253296-.2222901.438029-.1481933.8086548-.3427327 1.1118774-.5836181.3032227-.2408854.5452271-.5037028.7260132-.7884522.1807862-.2847493.3051555-.5645752.3731079-.83947751l.0180664-.0748291-1.8442382.00244141-.0262452.05554199c-.059733.12874351-.1683756.26517741-.3259277.40930171-.1575521.1441244-.3621216.2662151-.6137085.366272-.2515869.100057-.5526326.1500855-.9031372.1500855-.4477539 0-.8347982-.0992635-1.1611328-.2977906-.3263346-.198527-.577474-.4844767-.753418-.85784908-.175944-.37337239-.263916-.82324219-.263916-1.34960937v-.77905274c0-.54777018.089742-1.01098633.2692261-1.38964843.179484-.37866211.4245198-.66548666.7351074-.86047364s.6652629-.29248047 1.0640259-.29248047c.4003092 0 .7526855.09393311 1.0571289.28179932s.5428263.46936035.7151489.84448242.2584839.84722901.2584839 1.4163208v.77404785l.9243164-1.21972656h-5.9854736v1.30358887h6.9355469v-.64257813c0-.85831705-.1582642-1.60841878-.4747925-2.25030517-.3165283-.6418864-.7684937-1.14115397-1.355896-1.49780274-.5874024-.35664876-1.2862142-.53497314-2.0964356-.53497314-.8081868 0-1.5113932.18448893-2.1096191.5534668-.5982259.36897786-1.0609538.88653564-1.3881836 1.55267334-.3272298.66613769-.4908447 1.44814046-.4908447 2.3460083v.0078125c0 .90494791.1640218 1.68782552.4920654 2.34863277.3280436.6608073.7963257 1.1707561 1.4048462 1.5298462.6085205.3590902 1.3360799.5386353 2.1826782.5386353z"/><path d="m27.7955475 12.4313965c.5788574 0 1.0873006-.0740967 1.5253296-.2222901.4380289-.1481933.8086548-.3427327 1.1118774-.5836181.3032227-.2408854.5452271-.5037028.7260132-.7884522.1807861-.2847493.3051554-.5645752.3731079-.83947751l.0180664-.0748291-1.8442383.00244141-.0262451.05554199c-.0597331.12874351-.1683756.26517741-.3259277.40930171-.1575521.1441244-.3621216.2662151-.6137085.366272-.2515869.100057-.5526327.1500855-.9031372.1500855-.4477539 0-.8347982-.0992635-1.1611328-.2977906-.3263347-.198527-.577474-.4844767-.753418-.85784908-.175944-.37337239-.263916-.82324219-.263916-1.34960937v-.77905274c0-.54777018.089742-1.01098633.2692261-1.38964843.179484-.37866211.4245198-.66548666.7351074-.86047364.3105875-.19498698.6652628-.29248047 1.0640259-.29248047.4003092 0 .7526855.09393311 1.0571289.28179932.3044433.18786621.5428263.46936035.7151489.84448242s.2584839.84722901.2584839 1.4163208v.77404785l.9243164-1.21972656h-5.9854736v1.30358887h6.9355468v-.64257813c0-.85831705-.1582641-1.60841878-.4747925-2.25030517-.3165283-.6418864-.7684936-1.14115397-1.355896-1.49780274-.5874023-.35664876-1.2862141-.53497314-2.0964355-.53497314-.8081868 0-1.5113932.18448893-2.1096191.5534668-.5982259.36897786-1.0609538.88653564-1.3881836 1.55267334-.3272298.66613769-.4908448 1.44814046-.4908448 2.3460083v.0078125c0 .90494791.1640219 1.68782552.4920655 2.34863277.3280436.6608073.7963257 1.1707561 1.4048462 1.5298462.6085205.3590902 1.3360799.5386353 2.1826782.5386353z"/><path d="m40.2303181 12.2607422h2.0098877v-9.57739259h3.4744873v-1.69604492h-8.9588623v1.69604492h3.4744873z"/><path d="m46.3144588 12.2607422h1.9431153v-4.96142579c0-.40820313.0892741-.76100668.2678222-1.05841065.1785482-.29740397.4291382-.52750651.7517701-.69030762.3226318-.1628011.7000936-.24420166 1.1323852-.24420166.1691895 0 .333374.00939942.4925537.02819825.1591797.01879882.318156.04618326.4769287.08215332v-1.74340821c-.0957031-.02522786-.2143758-.04640706-.356018-.06353759-.1416423-.01713054-.285787-.0256958-.4324341-.0256958-.5611165 0-1.0310872.12650553-1.4099121.3795166-.3788249.25301106-.6415609.60913086-.788208 1.06835937h-.1348877v-1.30688476h-1.9431153z"/><path d="m52.6661396 12.2607422h1.9432373v-8.53564454h-1.9432373zm.9770508-9.96777345c.3197428 0 .5926107-.11222331.8186035-.33666992.2259928-.22444662.3389893-.49397787.3389893-.80859375 0-.31974284-.1129965-.59096273-.3389893-.81365967s-.4988607-.33404541-.8186035-.33404541c-.3146159 0-.5862223.11134847-.8148194.33404541-.228597.22269694-.3428955.49391683-.3428955.81365967 0 .31461588.1142985.58414713.3428955.80859375.2285971.22444661.5002035.33666992.8148194.33666992z"/><path d="m59.0235081 12.4017334c.3768717 0 .7245687-.0517375 1.0430908-.1552124s.6012166-.254008.8480835-.4515991c.2468669-.1975912.4480998-.4341227.6036987-.7095948h.1348877v1.1754151h1.9234619v-5.83239747c0-.60148112-.1331787-1.11680095-.3995361-1.54595948-.2663574-.42915852-.6551514-.75779215-1.1663818-.98590087-.5112305-.22810873-1.1344808-.34216309-1.869751-.34216309-.6748861 0-1.2702027.09987386-1.7859497.29962158-.5157471.19974772-.9294027.47859701-1.2409668.83654785-.3115641.35795085-.4996948.77805583-.5643921 1.26031494l-.0078125.06420899h1.8343506l.0102539-.02832031c.0979004-.28198243.287679-.50004069.5693359-.65417481.2816569-.15413411.6454265-.23120117 1.0913086-.23120117.5279134 0 .9275716.11405436 1.1989746.34216309.271403.22810872.4071045.55639648.4071045.98486328v2.69921875c0 .3383789-.0884399.64208984-.2653198.91113282-.1768799.269043-.4190267.4819946-.7264404.638855-.3074138.1568603-.6574097.2352905-1.0499878.2352905-.4302572 0-.7841594-.1028239-1.0617066-.3084717s-.4163208-.4898681-.4163208-.85266112v-.015625c0-.35229492.1302287-.62776692.3906861-.82641601.2604573-.19864909.6623331-.31376139 1.2056274-.34533692l2.8851318-.18493652v-1.27893066l-3.1605224.1899414c-1.0368653.06062826-1.8358358.30853272-2.3969116.74371338-.5610759.43518067-.8416138 1.03521729-.8416138 1.80010987v.015625c0 .51700848.1212361.96712238.3637085 1.35034178.2424723.3832194.5755208.6792806.9991455.8881836s.9052124.3133545 1.4447632.3133545z"/><path d="m65.6684265 12.2607422h1.9431152v-11.84484864h-1.9431152z"/></g><g transform="translate(34.854492 8.068359)"><path d="m0 7.43164062h2.77099609c.70475261 0 1.30289714-.13875325 1.7944336-.41625976s.86629232-.68196615 1.12426758-1.21337891.38696289-1.17635091.38696289-1.93481445v-.00976562c0-.73567709-.12980144-1.36230469-.3894043-1.87988282-.25960287-.51757812-.63557943-.91227213-1.12792969-1.18408203-.49235026-.27180989-1.08846028-.40771484-1.78833008-.40771484h-2.77099609zm1.47460938-1.21582031v-4.61425781h1.06445312c.42643229 0 .79142253.08911133 1.0949707.26733398.30354818.17822266.53588868.43741862.69702149.7775879.16113281.34016927.24169922.75195312.24169922 1.23535156v.00976562c0 .49967448-.07893881.92285156-.23681641 1.26953125s-.38818359.60913086-.69091797.78735352c-.30273437.17822265-.67138672.26733398-1.10595703.26733398z"/><path d="m9.83398438 7.54638672c.55338542 0 1.02783202-.11189779 1.42333982-.33569336s.699056-.5448405.9106446-.96313477c.2115885-.41829427.3173828-.91878255.3173828-1.50146484v-.00976563c0-.57942708-.107015-1.07788085-.321045-1.49536132-.2140299-.41748047-.5187988-.73852539-.9143066-.96313477-.3955078-.22460937-.867513-.33691406-1.41601562-.33691406-.5452474 0-1.01603191.11271159-1.41235352.33813476-.39632162.22542318-.7019043.546875-.91674805.96435547s-.32226562.91512045-.32226562 1.49291992v.00976563c0 .58268229.10620117 1.08317057.31860351 1.50146484.21240235.41829427.51676433.7393392.91308594.96313477.39632162.22379557.86954753.33569336 1.41967774.33569336zm0-1.11816406c-.25227865 0-.4671224-.06632487-.64453126-.19897461-.17740885-.13264974-.3129069-.32430013-.40649414-.57495117-.09358724-.25065105-.14038086-.55257162-.14038086-.90576172v-.00976563c0-.3515625.04720053-.65226237.14160157-.90209961s.23030599-.44189453.40771484-.57617187c.17740886-.13427735.3914388-.20141602.64208985-.20141602.25227862 0 .46671552.06713867.64331052.20141602.1765951.13427734.3120931.32633463.4064942.57617187.094401.24983724.1416015.55053711.1416015.90209961v.00976563c0 .3515625-.0467936.65266927-.1403808.90332031-.0935873.25065104-.2286784.44270833-.4052735.57617187-.176595.13346355-.3918457.20019532-.64575192.20019532z"/><path d="m14.5629883 7.43164062h1.4916992l.9545898-3.75h.0878907l.961914 3.75h1.5136719l1.4306641-5.37597656h-1.4111328l-.8007813 3.89404297h-.0878906l-.9497071-3.89404297h-1.3574218l-.9423828 3.89404297h-.0878907l-.8007812-3.89404297h-1.4379883z"/><path d="m22.1313477 7.43164062h1.4257812v-3.10791015c0-.24414063.0427246-.45572917.1281738-.63476563.0854493-.17903645.2071127-.31819661.3649903-.41748046.1578776-.09928386.3466797-.14892579.5664062-.14892579.3369141 0 .5851237.09765625.7446289.29296875s.2392578.48339844.2392578.86425782v3.15185546h1.4257813v-3.4765625c0-.64290364-.1566569-1.13932291-.4699707-1.48925781-.3133138-.34993489-.7694499-.52490234-1.3684082-.52490234-.3841146 0-.7063802.08463542-.9667969.25390625s-.452474.39957682-.5761719.69091797h-.0878906v-.83007813h-1.4257812z"/><path d="m28.5693359 7.43164062h1.4257813v-7.43164062h-1.4257813z"/><path d="m33.972168 7.54638672c.5533854 0 1.027832-.11189779 1.4233398-.33569336s.699056-.5448405.9106445-.96313477c.2115886-.41829427.3173829-.91878255.3173829-1.50146484v-.00976563c0-.57942708-.107015-1.07788085-.321045-1.49536132-.2140299-.41748047-.5187988-.73852539-.9143066-.96313477-.3955078-.22460937-.867513-.33691406-1.4160156-.33691406-.5452474 0-1.0160319.11271159-1.4123535.33813476-.3963217.22542318-.7019043.546875-.9167481.96435547-.2148437.41748047-.3222656.91512045-.3222656 1.49291992v.00976563c0 .58268229.1062012 1.08317057.3186035 1.50146484s.5167643.7393392.9130859.96313477.8695476.33569336 1.4196778.33569336zm0-1.11816406c-.2522787 0-.4671224-.06632487-.6445313-.19897461-.1774088-.13264974-.3129069-.32430013-.4064941-.57495117-.0935873-.25065105-.1403809-.55257162-.1403809-.90576172v-.00976563c0-.3515625.0472005-.65226237.1416016-.90209961.094401-.24983724.230306-.44189453.4077148-.57617187.1774089-.13427735.3914388-.20141602.6420899-.20141602.2522786 0 .4667155.06713867.6433105.20141602.1765951.13427734.3120931.32633463.4064942.57617187.094401.24983724.1416015.55053711.1416015.90209961v.00976563c0 .3515625-.0467936.65266927-.1403808.90332031-.0935873.25065104-.2286784.44270833-.4052735.57617187-.176595.13346355-.3918457.20019532-.6457519.20019532z"/><path d="m39.3652344 7.51708984c.234375 0 .4512532-.03173828.6506347-.09521484.1993816-.06347656.3751628-.1550293.5273438-.2746582.152181-.11962891.2730306-.26163737.3625488-.42602539h.0878906v.71044921h1.40625v-3.66943359c0-.38248698-.0866699-.70963542-.2600097-.98144531-.1733399-.2718099-.4260254-.47973633-.7580567-.6237793-.3320312-.14404297-.7364908-.21606445-1.2133789-.21606445-.4492187 0-.8435058.06510417-1.1828613.1953125s-.6095378.3120931-.8105469.5456543c-.2010091.23356119-.3202311.5082194-.357666.82397461l-.0048828.04638671h1.3183594l.0073242-.01953125c.0569661-.1595052.1660156-.28279622.3271484-.36987304.1611328-.08707683.37028-.13061524.6274414-.13061524.2929688 0 .5163575.06306966.6701661.18920899.1538085.12613932.2307128.30639648.2307128.54077148v1.71386719c0 .18880208-.0500488.35847982-.1501464.5090332-.1000977.15055339-.2368164.26977539-.4101563.35766602-.1733398.08789062-.369873.13183594-.5895996.13183594-.2473958 0-.4496257-.05859376-.6066895-.17578126s-.2355957-.27750651-.2355957-.48095703v-.00976562c0-.19694011.0752767-.3519694.2258301-.46508789s.3780111-.17862956.6823731-.1965332l1.7871093-.1147461v-.86914062l-1.9995117.1196289c-.6689453.0390625-1.1836751.19653321-1.5441894.47241211-.3605144.27587891-.5407715.65551758-.5407715 1.13891602v.00976562c0 .32552084.0748698.60953776.2246094.85205078.1497395.24251302.3568522.4300944.6213379.56274414.2644856.13264974.5668131.19897461.9069824.19897461z"/><path d="m45.8300781 7.51708984c.3808594 0 .7096354-.0805664.9863281-.24169922.2766928-.16113281.4842123-.38655598.6225586-.67626953h.0878907v.83251953h1.4257812v-7.43164062h-1.4257812v2.91503906h-.0878907c-.1350911-.29296875-.3446451-.52368164-.6286621-.69213867-.2840169-.16845703-.6107584-.25268555-.9802246-.25268555-.4541015 0-.8439127.11067709-1.1694336.33203125-.3255208.22135417-.5757649.53873698-.7507324.95214844-.1749674.41341146-.2624512.90820313-.2624512 1.484375v.00976563c0 .57128906.0887045 1.06404622.2661133 1.47827148.1774089.41422526.4296875.73282878.756836.95581055.3271484.22298177.7137044.33447265 1.1596679.33447265zm.4858399-1.18164062c-.2506511 0-.4671224-.06347656-.6494141-.19042969-.1822917-.12695312-.3226725-.30924479-.4211426-.546875-.09847-.23763021-.1477051-.52083333-.1477051-.84960937v-.00976563c0-.32877604.0492351-.61157226.1477051-.84838867.0984701-.23681641.2392578-.41910807.4223633-.546875s.3991699-.19165039.6481934-.19165039c.250651 0 .4675293.06388346.6506347.19165039.1831055.12776693.3247071.31005859.4248047.546875.1000977.23681641.1501465.52042643.1501465.85083008v.00976562c0 .32714844-.0496419.60953776-.1489258.84716797-.0992838.23763021-.2404785.41992188-.423584.546875-.1831054.12695313-.4007975.19042969-.6530761.19042969z"/></g></g></g></g></svg>