<svg height="110" viewBox="0 0 110 110" width="110" xmlns="http://www.w3.org/2000/svg"><g fill="#707883" transform="translate(.3023 34.0938)"><path d="m17.109375 53.984375v-44.8046875c0-1.45833333.3580729-2.54557292 1.0742188-3.26171875.7161458-.71614583 1.8033854-1.07421875 3.2617187-1.07421875h66.5234375c1.4322917 0 2.5130208.35807292 3.2421875 1.07421875s1.09375 1.80338542 1.09375 3.26171875v44.8046875z" opacity=".15"/><path d="m89.1015625 0c2.6302083 0 4.6223958.67057292 5.9765625 2.01171875s2.03125 3.33984375 2.03125 5.99609375v45.9765625h11.022745c.445759 0 .607402.0464128.770365.1335664.162963.0871535.290858.2150478.378011.3780107.087154.162963.133566.3246061.133566.7703655v2.4517398c0 .0799645-.001493.1507859-.004448.2141121-.041951.9801871-.405145 1.8133616-1.089302 2.497518-.729166.7291667-1.614583 1.09375-2.65625 1.09375h-101.914062c-1.06770833 0-1.95963542-.3645833-2.67578125-1.09375s-1.07421875-1.6276042-1.07421875-2.6953125l.00493187.2078364c-.00327516-.0658597-.00493187-.1399361-.00493187-.224154v-2.4517398c0-.4457594.04641281-.6074025.13356635-.7703655.08715355-.1629629.21504784-.2908572.3780108-.3780107.16296296-.0871536.32460608-.1335664.77036545-.1335664h10.9836824v-45.9765625c0-2.65625.703125-4.65494792 2.109375-5.99609375s3.3854167-2.01171875 5.9375-2.01171875zm-44.375 4.84375h-23.28125c-1.4583333 0-2.5455729.35807292-3.2617187 1.07421875-.7161459.71614583-1.0742188 1.80338542-1.0742188 3.26171875v44.8046875h75.1953125v-44.8046875c0-1.45833333-.3645833-2.54557292-1.09375-3.26171875s-1.8098958-1.07421875-3.2421875-1.07421875h-23.2421875c-.5729167 0-.859375.2734375-.859375.8203125v.4296875c0 .72916667-.2148437 1.32161458-.6445313 1.77734375-.4296874.45572917-1.0091145.68359375-1.7382812.68359375h-13.4765625c-.7552083 0-1.3541667-.22786458-1.796875-.68359375s-.6640625-1.04817708-.6640625-1.77734375v-.4296875c0-.546875-.2734375-.8203125-.8203125-.8203125z"/></g></svg>