<svg height="110" viewBox="0 0 110 110" width="110" xmlns="http://www.w3.org/2000/svg"><g fill="#707883" transform="translate(9.2652 25.0234)"><path d="m11.6015625 65.8984375c-2.21354167 0-3.89973958-.5729167-5.05859375-1.71875s-1.73828125-2.8515625-1.73828125-5.1171875v-47.421875c0-2.265625.57942708-3.97135417 1.73828125-5.1171875s2.84505208-1.71875 5.05859375-1.71875h68.28125c2.1614583 0 3.828125.57291667 5 1.71875s1.7578125 2.8515625 1.7578125 5.1171875v47.421875c0 2.265625-.5859375 3.9713542-1.7578125 5.1171875s-2.8385417 1.71875-5 1.71875z" opacity=".15"/><path d="m11.484375 70.703125h68.4765625c3.828125 0 6.7057292-.9635417 8.6328125-2.890625s2.890625-4.765625 2.890625-8.515625v-47.890625c0-3.77604167-.9635417-6.62109375-2.890625-8.53515625s-4.8046875-2.87109375-8.6328125-2.87109375h-68.4765625c-3.80208333 0-6.66666667.95703125-8.59375 2.87109375s-2.890625 4.75911458-2.890625 8.53515625v47.890625c0 3.7760417.96354167 6.6210938 2.890625 8.5351562 1.92708333 1.9140626 4.79166667 2.8710938 8.59375 2.8710938zm.1171875-4.8046875c-2.21354167 0-3.89973958-.5729167-5.05859375-1.71875s-1.73828125-2.8515625-1.73828125-5.1171875v-47.421875c0-2.265625.57942708-3.97135417 1.73828125-5.1171875s2.84505208-1.71875 5.05859375-1.71875h68.28125c2.1614583 0 3.828125.57291667 5 1.71875s1.7578125 2.8515625 1.7578125 5.1171875v47.421875c0 2.265625-.5859375 3.9713542-1.7578125 5.1171875s-2.8385417 1.71875-5 1.71875zm18.046875-3.0078125h32.1875c.4427083 0 .8072917-.1432292 1.09375-.4296875s.4296875-.6510417.4296875-1.09375-.1432292-.8138021-.4296875-1.1132813c-.2864583-.2994791-.6510417-.4492187-1.09375-.4492187h-32.1875c-.4427083 0-.8072917.1497396-1.09375.4492187-.2864583.2994792-.4296875.670573-.4296875 1.1132813s.1432292.8072917.4296875 1.09375.6510417.4296875 1.09375.4296875z"/></g></svg>