<svg height="110" viewBox="0 0 110 110" width="110" xmlns="http://www.w3.org/2000/svg"><g fill="#707883" fill-rule="nonzero"><g transform="translate(8.9609 15.6016)"><path d="m10.703125 75.5859375c-1.953125 0-3.42447917-.4817708-4.4140625-1.4453125s-1.484375-2.3958333-1.484375-4.296875v-59.296875c0-1.92708333.49479167-3.36588542 1.484375-4.31640625s2.4609375-1.42578125 4.4140625-1.42578125h26.1328125c1.953125 0 3.4244792.47526042 4.4140625 1.42578125s1.484375 2.38932292 1.484375 4.31640625v59.296875c0 1.9010417-.4947917 3.3333333-1.484375 4.296875s-2.4609375 1.4453125-4.4140625 1.4453125z" opacity=".15"/><path d="m10.15625 80.3515625h27.2265625c3.1510417 0 5.6315104-.8723958 7.4414063-2.6171875 1.8098958-1.7447917 2.7148437-4.1536458 2.7148437-7.2265625v-60.6640625c0-3.046875-.9049479-5.44921875-2.7148437-7.20703125-1.8098959-1.7578125-4.2903646-2.63671875-7.4414063-2.63671875h-27.2265625c-3.15104167 0-5.63151042.87890625-7.44140625 2.63671875s-2.71484375 4.16015625-2.71484375 7.20703125v60.6640625c0 3.0729167.90494792 5.4817708 2.71484375 7.2265625s4.29036458 2.6171875 7.44140625 2.6171875zm.546875-4.765625c-1.953125 0-3.42447917-.4817708-4.4140625-1.4453125s-1.484375-2.3958333-1.484375-4.296875v-59.296875c0-1.92708333.49479167-3.36588542 1.484375-4.31640625s2.4609375-1.42578125 4.4140625-1.42578125h26.1328125c1.953125 0 3.4244792.47526042 4.4140625 1.42578125s1.484375 2.38932292 1.484375 4.31640625v59.296875c0 1.9010417-.4947917 3.3333333-1.484375 4.296875s-2.4609375 1.4453125-4.4140625 1.4453125zm5-2.734375h16.2109375c.4166667 0 .7682292-.1497396 1.0546875-.4492187.2864583-.2994792.4296875-.670573.4296875-1.1132813s-.1432292-.8072917-.4296875-1.09375-.6380208-.4296875-1.0546875-.4296875h-16.2109375c-.4427083 0-.8138021.1432292-1.1132812.4296875-.2994792.2864583-.4492188.6510417-.4492188 1.09375s.1497396.8138021.4492188 1.1132813c.2994791.2994791.6705729.4492187 1.1132812.4492187zm3.515625-60.8984375h9.140625c.625 0 1.1653646-.2213542 1.6210938-.6640625.4557291-.4427083.6835937-1.0026042.6835937-1.6796875 0-.625-.2278646-1.15885417-.6835937-1.6015625-.4557292-.44270833-.9960938-.6640625-1.6210938-.6640625h-9.140625c-.6770833 0-1.2369792.22135417-1.6796875.6640625s-.6640625.9765625-.6640625 1.6015625c0 .6770833.2213542 1.2369792.6640625 1.6796875s1.0026042.6640625 1.6796875.6640625z"/></g><g transform="translate(66.4473 42.25)"><path d="m3.56445312 35.4980469v-18.7011719c0-1.8229167.50048829-3.2511393 1.50146485-4.284668 1.00097656-1.0335286 2.39664713-1.5502929 4.18701172-1.5502929h14.45312501c1.7903646 0 3.1860351.5167643 4.1870117 1.5502929 1.0009766 1.0335287 1.5014648 2.4617513 1.5014648 4.284668v18.7011719c0 1.8066406-.5004882 3.2267252-1.5014648 4.2602539-1.0009766 1.0335286-2.3966471 1.550293-4.1870117 1.550293h-14.45312501c-1.79036459 0-3.18603516-.5167644-4.18701172-1.550293-1.00097656-1.0335287-1.50146485-2.4536133-1.50146485-4.2602539z" opacity=".15"/><path d="m0 36.0107422c0 1.8880208.36214193 3.515625 1.08642578 4.8828125.72428386 1.3671875 1.77815755 2.4332682 3.1616211 3.1982422.6673177.3580729 1.20849609.785319 1.62353515 1.2817383.41503906.4964192.74462891 1.1515299.98876953 1.965332l.78125 2.6123047c.45572917 1.5462239 1.5218099 2.3193359 3.19824224 2.3193359h11.2792968c1.6601563 0 2.718099-.773112 3.1738282-2.3193359l.805664-2.6123047c.2441406-.8138021.5737305-1.4689128.9887695-1.965332.4150391-.4964193.9562175-.9236654 1.6235352-1.2817383 1.3834635-.764974 2.4373372-1.8310547 3.1616211-3.1982422.7242838-1.3671875 1.0864258-2.9947917 1.0864258-4.8828125v-19.7509766c0-1.8880208-.362142-3.515625-1.0864258-4.8828125-.7242839-1.3671875-1.7781576-2.4332682-3.1616211-3.19824216-.6673177-.35807292-1.2084961-.78531901-1.6235352-1.28173828-.415039-.49641927-.7446289-1.14339193-.9887695-1.94091797l-.805664-2.63671875c-.4231771-1.54622396-1.4811198-2.31933594-3.1738282-2.31933594h-11.2792968c-1.67643234 0-2.74251307.77311198-3.19824224 2.31933594l-.78125 2.63671875c-.22786458.79752604-.5493164 1.44856771-.96435547 1.953125-.41503906.50455729-.96435547.92773437-1.64794921 1.26953125-1.3671875.73242187-2.41699219 1.78629557-3.14941407 3.16162106-.73242187 1.3753256-1.09863281 3.0151368-1.09863281 4.9194336zm3.56445312-.5126953v-18.7011719c0-1.8229167.50048829-3.2511393 1.50146485-4.284668 1.00097656-1.0335286 2.39664713-1.5502929 4.18701172-1.5502929h14.45312501c1.7903646 0 3.1860351.5167643 4.1870117 1.5502929 1.0009766 1.0335287 1.5014648 2.4617513 1.5014648 4.284668v18.7011719c0 1.8066406-.5004882 3.2267252-1.5014648 4.2602539-1.0009766 1.0335286-2.3966471 1.550293-4.1870117 1.550293h-14.45312501c-1.79036459 0-3.18603516-.5167644-4.18701172-1.550293-1.00097656-1.0335287-1.50146485-2.4536133-1.50146485-4.2602539zm28.85742188-11.0839844h.8789062c.6347657 0 1.143392-.1993815 1.525879-.5981445.3824869-.3987631.5737304-.9480795.5737304-1.6479492v-3.2958985c0-.6998698-.1912435-1.2491862-.5737304-1.6479492-.382487-.398763-.8911133-.5981445-1.525879-.5981445h-.8789062z"/></g></g></svg>