<svg height="110" viewBox="0 0 110 110" width="110" xmlns="http://www.w3.org/2000/svg"><g fill="#707883" transform="translate(.8963 29.2306)"><path d="m54.1235352 43.1262207c-2.0772299 0-4.0037028.4129028-5.779419 1.2387085-1.7757161.8258057-3.5148112 1.8513997-5.2172851 3.0767822-1.702474 1.2253825-3.4627279 2.4487305-5.2807618 3.670044-1.8180338 1.2213134-3.8012695 2.2470092-5.949707 3.0770874-2.1484375.8300781-4.5611572 1.2451172-7.2381592 1.2451172-3.9510091 0-7.4180094-1.0254924-10.401001-3.0764771-2.9829915-2.0509847-5.30283605-4.9344889-6.95953364-8.6505127-1.65669759-3.7160237-2.48504639-8.0807495-2.48504639-13.0941772 0-4.6789551.76263428-8.5760498 2.28790283-11.6912842 1.52526856-3.1152344 3.7208049-5.6150309 6.5866089-7.4993897 2.865804-1.88435868 6.3203939-3.30312089 10.3637695-4.25628658 4.0433757-.95316569 8.5914103-1.58365885 13.644104-1.89147949s10.5288697-.46173096 16.4285279-.46173096c5.8732096 0 11.3361613.15391032 16.3888549.46173096 5.0526937.30782064 9.6027629.9383138 13.6502076 1.89147949 4.0474446.95316569 7.504069 2.3719279 10.369873 4.25628658 2.865804 1.8843588 5.0613403 4.3841553 6.5866093 7.4993897 1.525268 3.1152344 2.287902 7.0123291 2.287902 11.6912842 0 5.0134277-.828348 9.3781535-2.485046 13.0941772-1.6566976 3.7160238-3.9764404 6.599528-6.9592285 8.6505127s-6.4498901 3.0764771-10.4013061 3.0764771c-2.68514 0-5.1019287-.4150391-7.2503662-1.2451172-2.1484375-.8300782-4.1337077-1.855774-5.9558106-3.0770874-1.8221029-1.2213135-3.5823568-2.4446615-5.2807617-3.670044-1.698405-1.2253825-3.4354655-2.2509765-5.2111817-3.0767822-1.7757161-.8258057-3.6889648-1.2387085-5.739746-1.2387085z" opacity=".15"/><path d="m54.1235352 47.9266357c1.467692 0 2.9704793.4149374 4.5083618 1.2448121 1.5378825.8298746 3.1587728 1.8554687 4.8626709 3.0767822s3.553365 2.4446614 5.5484009 3.6700439c1.9950358 1.2253825 4.1856892 2.2530111 6.5719604 3.0828858 2.3862712.8298746 5.0350952 1.244812 7.9464722 1.244812 3.5119629 0 6.7674764-.7452393 9.7665405-2.2357178s5.6136068-3.5807292 7.8436281-6.2707519c2.230021-2.6900228 3.960164-5.832011 5.19043-9.4259644 1.230265-3.5939535 1.845397-7.4942017 1.845397-11.7007446 0-5.5281576-.908406-10.134786-2.725219-13.8198853s-4.378968-6.6488647-7.6864627-8.89129637c-3.3074951-2.24243164-7.217102-3.93076579-11.7288208-5.06500244-4.5117187-1.13423666-9.4729614-1.89056397-14.883728-2.26898194s-11.0973104-.56762695-17.0596313-.56762695c-5.9887696 0-11.6885376.18920898-17.0993042.56762695s-10.3720093 1.13922119-14.8837281 2.28240967c-4.5117187 1.14318848-8.4213257 2.83599854-11.7288208 5.07843018-3.30749509 2.2424316-5.86964922 5.2061971-7.68646237 8.8912964s-2.72521973 8.2827759-2.72521973 13.7930298c0 4.2065429.61960856 8.1067911 1.85882568 11.7007446 1.23921713 3.5939534 2.96936036 6.7359416 5.19042969 9.4259644 2.22106934 2.6900227 4.83113603 4.7802734 7.83020023 6.2707519 2.9990641 1.4904785 6.2586466 2.2357178 9.7787475 2.2357178 2.903239 0 5.547994-.4149374 7.9342652-1.244812 2.3862711-.8298747 4.5769246-1.8575033 6.5719604-3.0828858s3.8445028-2.4487304 5.5484009-3.6700439 3.3227539-2.2469076 4.8565674-3.0767822c1.5338134-.8298747 3.0518595-1.2448121 4.5541382-1.2448121zm0-4.800415c-2.0772299 0-4.0037028.4129028-5.779419 1.2387085-1.7757161.8258057-3.5148112 1.8513997-5.2172851 3.0767822-1.702474 1.2253825-3.4627279 2.4487305-5.2807618 3.670044-1.8180338 1.2213134-3.8012695 2.2470092-5.949707 3.0770874-2.1484375.8300781-4.5611572 1.2451172-7.2381592 1.2451172-3.9510091 0-7.4180094-1.0254924-10.401001-3.0764771-2.9829915-2.0509847-5.30283605-4.9344889-6.95953364-8.6505127-1.65669759-3.7160237-2.48504639-8.0807495-2.48504639-13.0941772 0-4.6789551.76263428-8.5760498 2.28790283-11.6912842 1.52526856-3.1152344 3.7208049-5.6150309 6.5866089-7.4993897 2.865804-1.88435868 6.3203939-3.30312089 10.3637695-4.25628658 4.0433757-.95316569 8.5914103-1.58365885 13.644104-1.89147949s10.5288697-.46173096 16.4285279-.46173096c5.8732096 0 11.3361613.15391032 16.3888549.46173096 5.0526937.30782064 9.6027629.9383138 13.6502076 1.89147949 4.0474446.95316569 7.504069 2.3719279 10.369873 4.25628658 2.865804 1.8843588 5.0613403 4.3841553 6.5866093 7.4993897 1.525268 3.1152344 2.287902 7.0123291 2.287902 11.6912842 0 5.0134277-.828348 9.3781535-2.485046 13.0941772-1.6566976 3.7160238-3.9764404 6.599528-6.9592285 8.6505127s-6.4498901 3.0764771-10.4013061 3.0764771c-2.68514 0-5.1019287-.4150391-7.2503662-1.2451172-2.1484375-.8300782-4.1337077-1.855774-5.9558106-3.0770874-1.8221029-1.2213135-3.5823568-2.4446615-5.2807617-3.670044-1.698405-1.2253825-3.4354655-2.2509765-5.2111817-3.0767822-1.7757161-.8258057-3.6889648-1.2387085-5.739746-1.2387085z"/></g></svg>